<?xml version="1.0" encoding="UTF-8"?>
<svg xmlns="http://www.w3.org/2000/svg" xmlns:xlink="http://www.w3.org/1999/xlink" width="261.01pt" height="238.84pt" viewBox="0 0 261.01 238.84" version="1.1">
<defs>
<clipPath id="clip1">
  <path d="M 183 120 L 261.011719 120 L 261.011719 198 L 183 198 Z M 183 120 "/>
</clipPath>
<clipPath id="clip2">
  <path d="M 21 163 L 222 163 L 222 238.839844 L 21 238.839844 Z M 21 163 "/>
</clipPath>
</defs>
<g id="surface1">
<path style=" stroke:none;fill-rule:nonzero;fill:rgb(0%,65.098572%,31.399536%);fill-opacity:1;" d="M 227.925781 94.601563 C 227.925781 146.84375 185.574219 189.203125 133.320313 189.203125 C 81.078125 189.203125 38.722656 146.84375 38.722656 94.601563 C 38.722656 42.355469 81.078125 0 133.320313 0 C 185.574219 0 227.925781 42.355469 227.925781 94.601563 "/>
<path style=" stroke:none;fill-rule:nonzero;fill:rgb(92.89856%,10.998535%,14.099121%);fill-opacity:1;" d="M 196.210938 94.601563 C 196.210938 129.328125 168.054688 157.492188 133.320313 157.492188 C 98.59375 157.492188 70.4375 129.328125 70.4375 94.601563 C 70.4375 59.871094 98.59375 31.710938 133.320313 31.710938 C 168.054688 31.710938 196.210938 59.871094 196.210938 94.601563 "/>
<path style=" stroke:none;fill-rule:nonzero;fill:rgb(100%,94.898987%,0%);fill-opacity:1;" d="M 117.519531 51.460938 C 117.34375 51.597656 116.964844 51.609375 116.796875 52.335938 C 116.625 53.054688 116.5 53.292969 116.523438 54.039063 C 116.5 54.160156 116.542969 54.679688 115.4375 55.035156 C 115.15625 55.015625 115.007813 54.933594 114.875 54.894531 C 114.753906 54.84375 113.796875 54.867188 113.617188 54.867188 C 113.453125 54.867188 112.839844 54.695313 111.753906 53.382813 C 111.503906 53.230469 110.769531 52.71875 110.414063 52.1875 C 110.414063 51.839844 110.5 51.652344 110.074219 51.605469 C 110.039063 51.289063 109.980469 49.304688 109.171875 48.546875 C 108.695313 48.449219 108.359375 48.59375 108.359375 48.59375 L 108.265625 48.355469 C 108.265625 48.355469 107.410156 48.316406 107.167969 48.355469 C 106.664063 49.125 107.441406 50.160156 105.335938 50.964844 C 105.09375 50.714844 103.339844 49.046875 102.960938 48.6875 C 102.699219 48.703125 102.632813 48.671875 102.632813 48.671875 L 102.621094 47.9375 C 102.621094 47.9375 101.660156 46.644531 101.023438 46.527344 C 100.5625 46.507813 100.15625 46.476563 99.972656 46.003906 C 99.164063 45.953125 97.636719 45.953125 97.636719 45.953125 C 97.636719 45.953125 97.328125 46.746094 97.476563 47.503906 C 97.710938 47.789063 97.761719 47.949219 98.605469 47.929688 C 98.828125 48.097656 99.246094 48.316406 99.300781 49.003906 C 99.539063 49.191406 99.921875 49.527344 99.371094 49.804688 C 98.960938 50.144531 98.847656 50.261719 98.351563 50.238281 C 98.203125 50.191406 97.730469 50.5 97.824219 51.160156 C 97.589844 51.160156 97.308594 51.429688 97.214844 51.855469 C 97.066406 51.921875 96.800781 52.023438 96.664063 52.449219 C 96.335938 52.515625 95.609375 52.773438 95.046875 53.71875 C 95.046875 53.804688 94.898438 54.316406 94.851563 55.015625 C 94.78125 55.152344 94.632813 55.304688 94.671875 55.800781 C 94.703125 56.027344 94.789063 56.230469 94.488281 56.207031 C 94.292969 56.207031 94.40625 56.253906 94.355469 56.257813 C 94.28125 56.28125 94.175781 56.230469 94.132813 56.308594 C 94.09375 56.382813 94.101563 56.488281 94.058594 56.515625 C 94.019531 56.554688 93.984375 56.675781 93.953125 56.777344 C 93.933594 56.890625 93.953125 59.257813 93.953125 59.257813 C 93.953125 59.257813 94.320313 59.644531 94.378906 59.769531 C 94.429688 59.886719 94.429688 60.269531 95.359375 60.25 C 95.800781 60.285156 96.242188 60.410156 96.308594 60.527344 C 96.503906 60.527344 97.09375 60.527344 97.09375 60.527344 C 97.09375 60.527344 97.1875 60.929688 97.1875 61.070313 C 97.1875 61.214844 97.46875 61.324219 97.507813 61.425781 C 97.550781 61.519531 97.773438 61.925781 97.910156 61.925781 C 98.03125 61.925781 98.40625 61.925781 98.40625 61.925781 L 98.433594 62.171875 C 98.433594 62.171875 98.929688 62.152344 98.976563 62.226563 C 99.015625 62.292969 99.398438 62.550781 99.429688 62.625 C 99.457031 62.703125 99.539063 62.832031 99.550781 62.902344 C 99.625 63.015625 99.890625 63.347656 100.085938 63.441406 C 100.269531 63.539063 100.421875 63.554688 100.503906 63.640625 C 100.589844 63.726563 100.710938 63.886719 100.757813 63.960938 C 100.785156 64.019531 101.070313 64.261719 101.09375 64.308594 C 101.113281 64.347656 101.492188 64.445313 101.558594 64.472656 C 101.621094 64.511719 101.84375 64.566406 101.902344 64.605469 C 101.96875 64.644531 102.324219 64.789063 102.503906 64.773438 C 102.699219 64.769531 103.515625 64.820313 103.65625 64.800781 C 103.992188 64.605469 104.078125 64.46875 104.183594 64.46875 C 104.300781 64.46875 104.941406 64.441406 105.050781 64.453125 C 105.152344 64.46875 105.335938 64.648438 105.34375 64.722656 C 105.359375 64.789063 106.039063 65.121094 106.019531 65.355469 C 105.996094 65.585938 106.019531 66.457031 106.230469 66.601563 C 106.4375 66.738281 106.578125 66.738281 106.578125 66.738281 C 106.578125 66.738281 106.84375 67.773438 106.628906 68.003906 C 106.554688 68.398438 106.621094 69.089844 105.4375 69.484375 C 105.3125 69.550781 105.390625 69.847656 105.390625 69.847656 L 105.121094 69.902344 C 105.121094 69.902344 105.3125 69.4375 104.507813 69.503906 C 103.9375 69.503906 102.339844 69.503906 102.339844 69.503906 L 102.25 69.75 L 101.339844 69.789063 L 100.019531 69.902344 C 100.019531 69.902344 99.753906 69.890625 99.753906 70.363281 C 99.753906 70.839844 99.703125 71.894531 99.597656 72.144531 C 99.597656 72.144531 99.203125 72.535156 99.082031 72.980469 C 99.015625 73.132813 98.78125 73.742188 98.519531 73.804688 C 98.386719 73.886719 97.816406 74.234375 97.695313 74.246094 C 97.589844 74.261719 97.402344 74.207031 97.394531 74.171875 C 97.375 74.144531 96.074219 74.152344 95.957031 74.3125 C 95.828125 74.484375 95.445313 75.414063 95.433594 75.476563 C 95.40625 75.550781 95.285156 76.015625 95.03125 76.242188 C 94.765625 76.46875 94.535156 76.742188 94.503906 77.023438 C 94.441406 77.179688 94.292969 77.226563 94.300781 77.417969 C 94.320313 77.605469 94.027344 77.898438 93.960938 77.960938 C 93.898438 78.015625 93.953125 79.402344 93.953125 79.484375 C 93.960938 79.570313 94.125 79.464844 94.125 79.570313 C 94.109375 79.675781 94.167969 80.449219 94.234375 80.53125 C 94.300781 80.632813 94.863281 81.269531 94.996094 81.363281 C 95.144531 81.460938 95.453125 81.90625 95.996094 82.007813 C 96.082031 82.210938 96.261719 82.476563 96.34375 82.515625 C 96.429688 82.554688 96.578125 82.738281 96.652344 82.796875 C 96.738281 82.839844 97.433594 83.148438 97.488281 83.1875 C 97.527344 83.234375 97.898438 83.820313 98.003906 83.839844 C 98.109375 83.859375 98.574219 84.136719 99.109375 84.140625 C 99.34375 84.164063 100.617188 84.21875 100.664063 84.164063 C 100.703125 84.121094 100.769531 84.101563 100.839844 84.121094 C 100.925781 84.136719 100.902344 84.144531 100.976563 84.203125 C 101.050781 84.261719 101.144531 84.441406 101.230469 84.484375 C 101.339844 84.539063 101.464844 84.800781 101.734375 84.734375 C 102.015625 84.730469 102.359375 84.734375 102.453125 84.777344 C 102.550781 84.800781 102.519531 85.054688 102.578125 85.054688 C 102.652344 85.070313 103.636719 85.011719 103.683594 85.054688 C 103.742188 85.089844 104.78125 85.378906 105.136719 85.828125 C 105.21875 86.167969 105.21875 86.925781 105.203125 87.074219 C 105.203125 87.238281 105.191406 87.136719 105.152344 87.363281 C 105.121094 87.59375 105.203125 87.554688 105.078125 87.714844 C 104.964844 87.878906 105.109375 87.792969 104.929688 88.011719 C 104.847656 88.578125 104.882813 89.195313 104.941406 89.378906 C 105.003906 89.554688 105.035156 89.972656 105.027344 90.265625 C 105.003906 90.546875 105.003906 91.0625 104.949219 91.105469 C 104.890625 91.128906 104.753906 91.007813 104.59375 91.386719 C 104.546875 91.492188 103.917969 91.753906 103.785156 91.898438 C 103.644531 92.054688 103.371094 92.222656 103.300781 92.390625 C 103.261719 92.835938 103.308594 93.222656 103.195313 93.375 C 103.074219 93.523438 102.832031 94 102.867188 94.613281 C 102.867188 94.871094 102.738281 95.117188 102.757813 95.523438 C 102.78125 95.917969 102.90625 95.90625 102.875 96.207031 C 102.84375 96.5 102.941406 96.585938 103 96.660156 C 103.066406 96.726563 103.234375 97.074219 103.300781 97.179688 C 103.363281 97.292969 103.8125 97.492188 103.972656 97.554688 C 104.128906 97.632813 104.628906 97.855469 104.695313 97.953125 C 104.78125 98.046875 104.910156 98.007813 104.941406 98.171875 C 104.976563 98.332031 105.320313 98.511719 105.4375 98.488281 C 105.613281 98.703125 105.53125 98.679688 105.679688 98.851563 C 105.902344 99.023438 106.007813 99.015625 105.859375 99.5625 C 105.796875 99.628906 105.519531 100.148438 105.414063 100.226563 C 105.320313 100.304688 105.34375 100.546875 105.3125 100.589844 C 105.277344 100.636719 105.109375 100.527344 105.050781 100.65625 C 104.988281 100.792969 104.964844 100.804688 104.964844 100.96875 C 104.964844 101.144531 104.976563 101.34375 104.910156 101.484375 C 104.847656 101.621094 104.855469 102.585938 104.976563 102.722656 C 105.09375 102.847656 105.511719 102.996094 105.566406 102.972656 C 105.640625 102.949219 105.941406 102.886719 106.039063 102.972656 C 106.164063 103.003906 106.269531 103.003906 106.355469 103.128906 C 106.410156 103.304688 106.503906 103.589844 106.714844 103.566406 C 106.925781 103.539063 107.835938 103.613281 108.03125 103.613281 C 108.222656 103.613281 108.136719 103.859375 108.445313 103.859375 C 108.746094 103.859375 108.96875 103.800781 108.746094 104.03125 C 108.519531 104.25 108.277344 104.46875 108.222656 104.738281 C 108.171875 105.011719 108.171875 105.101563 108.003906 105.324219 C 107.835938 105.546875 107.78125 105.683594 107.695313 105.867188 C 107.609375 106.070313 107.535156 106.34375 107.472656 106.535156 C 107.421875 106.730469 107.3125 107.195313 107.609375 107.835938 C 107.917969 108.457031 108.003906 108.242188 108.136719 108.660156 C 108.277344 109.074219 109.351563 109.214844 108.886719 110.757813 C 108.820313 110.925781 108.773438 113.117188 108.664063 114.011719 C 108.546875 114.894531 109.046875 115.199219 109.214844 115.894531 C 109.519531 116.113281 109.488281 115.777344 109.488281 116.65625 C 109.488281 117.539063 109.46875 118.089844 109.675781 118.613281 C 109.898438 119.140625 109.878906 119.605469 110.871094 120.675781 C 110.953125 121.710938 111.109375 122.414063 111.109375 122.726563 C 111.109375 123.035156 111.023438 122.941406 111.023438 123.550781 C 111.023438 124.160156 111.230469 124.683594 111.109375 124.734375 C 111.003906 124.796875 110.507813 124.703125 110.507813 125.675781 C 110.507813 126.640625 110.394531 127.054688 110.5625 127.355469 C 110.730469 127.65625 110.871094 127.765625 110.953125 127.882813 C 111.023438 127.992188 110.816406 128.601563 111.023438 128.765625 C 111.257813 128.929688 111.394531 128.851563 111.503906 129.09375 C 111.613281 129.339844 111.613281 129.5 111.773438 129.667969 C 111.945313 129.835938 111.976563 130.054688 112.472656 130.171875 C 112.964844 130.28125 113.484375 130.308594 113.769531 129.945313 C 113.992188 129.785156 114.949219 129.699219 115.140625 129.667969 C 115.34375 129.652344 116.75 129.007813 117.414063 128.859375 C 115.765625 117.867188 118.550781 119.460938 118.550781 119.460938 C 118.550781 119.460938 119.796875 118.492188 121.652344 127.496094 C 121.652344 127.117188 121.816406 126.699219 121.980469 126.53125 C 122.140625 126.367188 122.542969 126.140625 122.847656 125.773438 C 123.019531 125.363281 121.054688 116.378906 121.164063 116.121094 C 121.339844 115.703125 122.007813 114.648438 123.089844 118.277344 C 123.226563 118.730469 124.691406 124.402344 124.851563 124.464844 C 125.019531 124.523438 125.464844 124.796875 125.601563 124.898438 C 125.738281 125.011719 126.234375 125.011719 126.234375 125.011719 C 126.234375 125.011719 126.902344 125.425781 127.195313 125.535156 C 127.503906 125.652344 127.6875 125.847656 128.332031 125.753906 C 128.964844 125.675781 128.964844 125.847656 129.320313 125.535156 C 129.683594 125.234375 130.472656 125.011719 130.671875 124.796875 C 130.863281 124.570313 132.074219 124.628906 132.328125 124.570313 C 132.570313 124.523438 133.042969 124.214844 133.5625 124.160156 C 134.277344 124.019531 134.996094 123.433594 135.046875 123.195313 C 135.113281 122.941406 135.027344 122.941406 135.195313 122.746094 C 136.070313 122.386719 136.988281 121.84375 137.125 121.710938 C 137.261719 121.570313 137.84375 121.042969 138.085938 120.765625 C 138.503906 120.492188 139.21875 120.574219 139.574219 117.683594 C 139.414063 116.929688 139.519531 114.039063 139.519531 113.699219 C 139.519531 113.371094 138.890625 111.832031 138.441406 111.695313 C 138.011719 111.554688 137.925781 111.449219 137.84375 111.117188 C 137.757813 110.777344 137.230469 110.757813 137.160156 110.425781 C 137.0625 110.09375 136.738281 109.570313 136.800781 109.429688 C 136.855469 109.292969 137.707031 109.34375 138.203125 110.035156 C 138.289063 110.179688 138.78125 110.476563 138.835938 110.890625 C 138.851563 111.105469 139.253906 111.34375 139.226563 111.335938 C 139.359375 111.367188 139.792969 111.300781 139.949219 111.507813 C 139.996094 112.054688 140.480469 112.824219 140.914063 112.761719 C 141.554688 112.664063 141.554688 112.710938 141.554688 112.710938 C 141.554688 112.710938 141.898438 112.5625 142.929688 113.054688 C 143.960938 113.539063 144.507813 112.859375 145.179688 112.664063 C 145.882813 112.460938 146.078125 112.066406 146.117188 111.671875 C 146.171875 111.285156 146.371094 111.03125 146.472656 110.839844 C 146.566406 110.636719 146.710938 109.453125 146.710938 109.453125 L 146.820313 109.070313 L 147.796875 109.117188 L 148.242188 109.371094 L 149.070313 110.546875 L 149.664063 110.546875 L 149.8125 111.375 L 150.148438 112.066406 L 150.792969 112.066406 C 150.792969 112.066406 150.578125 112.414063 150.78125 112.621094 C 150.984375 112.824219 151.847656 113.984375 151.847656 113.984375 C 151.847656 113.984375 151.976563 115.042969 152.132813 115.058594 C 152.351563 115.484375 152.414063 116.164063 152.492188 116.359375 C 152.574219 116.550781 153.257813 116.824219 153.203125 117.5625 C 153.203125 117.757813 153.035156 118.015625 153.578125 118.214844 C 153.714844 118.160156 153.671875 117.9375 153.945313 118.199219 C 154.234375 118.488281 153.925781 118.738281 154.113281 118.933594 C 154.300781 119.128906 154.46875 119.289063 154.636719 119.710938 C 154.808594 120.125 154.976563 120.648438 155.171875 121.042969 C 155.367188 121.429688 155.03125 123.34375 155.96875 125.121094 C 156.257813 125.570313 157.5625 126.484375 156.578125 128.535156 C 156.664063 129.421875 156.527344 131.851563 156.917969 131.980469 C 157.308594 132.125 157.085938 131.980469 157.253906 132.011719 C 157.414063 132.039063 157.171875 132.179688 157.390625 132.449219 C 157.617188 132.734375 157.753906 132.953125 157.753906 132.953125 C 157.753906 132.953125 157.992188 133.292969 158.179688 133.351563 C 158.375 133.402344 158.394531 133.351563 158.414063 133.425781 C 158.414063 133.664063 158.289063 133.945313 158.433594 134.117188 C 158.597656 134.292969 158.753906 134.480469 158.753906 134.480469 L 158.761719 134.652344 L 158.6875 135.167969 C 158.6875 135.167969 158.734375 135.644531 158.902344 135.8125 C 159.0625 135.980469 159.0625 136.023438 159.0625 136.023438 C 159.0625 136.023438 159.027344 136.910156 159.164063 137.183594 C 159.292969 137.46875 160.671875 138.894531 160.820313 139.015625 C 160.953125 139.140625 160.953125 139.410156 160.980469 139.476563 C 161.003906 139.554688 161.199219 139.429688 161.359375 139.535156 C 161.515625 139.652344 161.621094 139.757813 161.65625 139.902344 C 161.664063 140.054688 161.824219 140.113281 162.054688 140.488281 C 162.289063 140.867188 162.214844 141.171875 162.421875 141.203125 C 162.632813 141.234375 162.980469 141.257813 162.953125 141.394531 C 162.929688 141.535156 163.140625 142.433594 163.898438 143.046875 C 164.121094 143.121094 164.171875 143.484375 164.300781 143.816406 C 164.414063 144.128906 164.394531 144.09375 164.535156 144.351563 C 164.65625 144.609375 164.621094 144.628906 164.695313 144.753906 C 164.777344 144.890625 165.050781 145.011719 165.144531 145.082031 C 165.230469 145.148438 165.558594 145.085938 165.605469 145.121094 C 165.652344 145.144531 165.707031 145.148438 165.671875 144.949219 C 165.640625 144.746094 165.652344 144.792969 165.503906 144.589844 C 165.367188 144.375 165.210938 143.925781 165.144531 143.644531 C 165.070313 143.355469 164.816406 142.804688 164.742188 142.53125 C 164.65625 142.269531 164.257813 141.242188 164.1875 141.019531 C 164.113281 140.804688 163.910156 140.804688 163.878906 140.585938 C 163.847656 140.382813 163.992188 140.050781 163.816406 139.902344 C 163.625 139.757813 163.121094 139.179688 163.007813 138.71875 C 162.878906 138.246094 162.738281 138.429688 162.738281 138.027344 C 162.738281 137.605469 162.691406 137.015625 162.511719 136.835938 C 162.316406 136.660156 162.4375 136.539063 162.351563 136.320313 C 162.257813 136.113281 162.179688 135.914063 162.117188 135.6875 C 162.042969 135.433594 161.996094 135.550781 162.035156 135.367188 C 162.078125 135.183594 162.078125 135.265625 162.078125 135.046875 C 162.078125 134.832031 162.117188 134.402344 162.089844 134.292969 C 162.078125 134.175781 162.078125 134.238281 162.023438 133.90625 C 161.976563 133.601563 161.976563 133.683594 161.976563 133.492188 C 161.976563 133.300781 161.910156 132.730469 161.996094 132.714844 C 162.078125 132.703125 162.730469 132.730469 162.78125 132.730469 C 162.824219 132.730469 162.773438 132.757813 162.878906 132.640625 C 162.992188 132.511719 163.09375 132.304688 163.160156 132.152344 C 163.222656 131.996094 163.464844 131.902344 163.511719 131.851563 C 163.550781 131.796875 163.859375 131.605469 163.992188 131.605469 C 164.140625 131.605469 164.121094 131.523438 164.414063 131.621094 C 164.722656 131.714844 164.988281 131.980469 165.03125 132.136719 C 165.070313 132.304688 165.292969 132.59375 165.367188 132.714844 C 165.429688 132.835938 165.671875 132.714844 165.753906 132.773438 C 165.828125 132.832031 165.808594 132.855469 165.882813 132.933594 C 165.960938 132.992188 166.074219 133.066406 166.074219 133.066406 C 166.074219 133.066406 166.15625 133.105469 166.269531 133.105469 C 166.390625 133.105469 166.464844 133.148438 166.617188 133.148438 C 166.785156 133.175781 166.945313 133.410156 166.980469 133.554688 C 167.011719 133.703125 167.085938 133.804688 167.339844 133.921875 C 167.578125 134.050781 167.621094 134.375 167.683594 134.515625 C 167.761719 134.65625 167.871094 134.570313 167.949219 134.652344 C 168.023438 134.722656 168.246094 134.71875 168.246094 134.71875 C 168.246094 134.71875 168.339844 134.753906 168.371094 134.695313 C 168.386719 134.65625 168.453125 134.675781 168.582031 134.542969 C 168.699219 134.421875 168.601563 134.492188 168.640625 134.355469 C 168.6875 134.226563 168.667969 131.089844 168.667969 131.089844 C 168.667969 131.089844 168.550781 129.820313 168.464844 129.773438 C 168.378906 129.738281 168.320313 129.65625 168.378906 129.523438 C 168.445313 129.386719 168.453125 129.492188 168.453125 129.226563 C 168.453125 128.960938 168.472656 128.664063 168.371094 128.484375 C 168.257813 128.300781 168.234375 128.46875 168.164063 128.214844 C 168.078125 127.953125 168.015625 128.160156 168.015625 127.765625 C 168.015625 127.382813 167.992188 127.179688 168.015625 127.105469 C 168.03125 127.027344 168.085938 127.003906 168.152344 126.914063 C 168.199219 126.824219 168.234375 126.074219 168.21875 125.828125 C 168.214844 125.585938 168.285156 124.9375 168.054688 124.722656 C 167.824219 124.511719 168.066406 124.402344 168.054688 124.183594 C 168.042969 123.945313 168.078125 123.523438 168.066406 123.09375 C 168.054688 122.675781 168.042969 122.726563 168.023438 122.519531 C 168.003906 122.304688 167.921875 121.910156 167.863281 121.859375 C 167.8125 121.800781 167.84375 120.144531 167.78125 119.847656 C 167.714844 119.527344 167.703125 118.878906 167.675781 118.574219 C 167.421875 118.453125 167.871094 117.773438 167.085938 116.03125 C 166.886719 115.78125 166.820313 115.277344 166.820313 115.101563 C 166.820313 114.941406 166.730469 112.84375 166.703125 112.570313 C 166.683594 112.285156 166.578125 111.867188 166.523438 111.15625 C 166.304688 110.917969 166.523438 110.269531 166.242188 109.984375 C 165.941406 109.6875 165.789063 108.910156 165.175781 108.144531 C 165.144531 107.925781 164.964844 106.953125 164.902344 106.632813 C 164.824219 106.304688 164.871094 106.234375 164.742188 106.089844 C 164.609375 105.941406 163.933594 105.6875 163.824219 105.609375 C 163.730469 105.527344 163.691406 105.289063 163.582031 105.207031 C 163.488281 105.125 163.382813 105.070313 163.382813 104.804688 C 163.382813 104.535156 163.328125 104.652344 163.328125 104.273438 C 163.328125 103.882813 163.183594 103.074219 163.160156 102.847656 C 163.121094 102.628906 162.992188 101.902344 162.972656 101.664063 C 162.945313 101.425781 163.015625 101.476563 162.921875 101.222656 C 162.835938 100.96875 162.921875 100.65625 163.027344 100.550781 C 163.121094 100.457031 163.320313 99.261719 162.953125 97.957031 C 162.8125 97.636719 162.316406 97 162.257813 96.726563 C 162.203125 96.464844 162.214844 96.253906 162.171875 96.148438 C 162.125 96.039063 161.695313 95.273438 161.464844 95.050781 C 161.464844 94.757813 161.367188 94.0625 161.328125 93.902344 C 161.273438 93.738281 161.210938 93.960938 161.160156 93.644531 C 161.113281 93.339844 161.304688 93.621094 161.113281 93.226563 C 160.925781 92.835938 160.84375 92.566406 160.777344 92.511719 C 160.726563 92.449219 159.867188 91.835938 159.558594 91.835938 C 159.238281 91.835938 158.238281 91.738281 157.992188 92.058594 C 157.753906 92.367188 157.675781 92.667969 157.507813 92.648438 C 157.335938 92.617188 157.046875 92.449219 156.804688 92.367188 C 156.5625 92.300781 154.976563 92.074219 155.078125 92.910156 C 155.078125 93.433594 155.125 94.136719 155.199219 94.300781 C 155.265625 94.472656 155.21875 95.300781 155.292969 95.570313 C 155.367188 95.84375 155.632813 95.710938 155.414063 96.132813 C 155.199219 96.546875 154.976563 96.492188 154.90625 96.835938 C 154.835938 97.179688 154.496094 97.648438 154.335938 97.734375 C 154.195313 97.84375 153.738281 97.84375 153.566406 98.039063 C 153.386719 98.226563 153.101563 98.523438 152.953125 98.695313 C 152.808594 98.863281 152.269531 99.359375 152.546875 101.0625 C 152.660156 101.179688 152.785156 101.546875 152.976563 101.6875 C 153.175781 101.835938 153.34375 103.007813 153.21875 103.230469 C 153.101563 103.441406 152.902344 103.785156 152.679688 104.03125 C 152.46875 104.273438 151.785156 104.738281 151.65625 104.886719 C 151.546875 105.03125 151.246094 104.828125 151.246094 104.828125 C 151.246094 104.828125 150.710938 104.636719 150.539063 104.601563 C 150.371094 104.546875 150.371094 104.546875 150.167969 104.25 C 149.980469 103.957031 149.296875 102.015625 149.242188 101.835938 C 149.199219 101.664063 149.050781 102.15625 149.050781 101.503906 C 149.050781 100.835938 149.144531 100.9375 148.640625 100.761719 C 148.121094 100.589844 148.121094 100.453125 147.546875 100.277344 C 146.953125 100.109375 147.007813 100.175781 146.78125 99.988281 C 146.566406 99.792969 145.667969 98.886719 145.320313 98.671875 C 144.980469 98.445313 145.519531 97.792969 144.71875 96.957031 C 144.589844 96.664063 144.664063 96.46875 143.980469 95.808594 C 143.8125 95.03125 143.398438 94.300781 143.492188 94.101563 C 143.589844 93.917969 143.78125 92.886719 144.035156 92.695313 C 144.296875 92.503906 144.453125 92.179688 144.550781 91.757813 C 144.65625 91.339844 144.550781 91.277344 144.71875 90.589844 C 144.878906 89.914063 145.140625 89.457031 145.519531 89.132813 C 145.910156 88.8125 147.785156 87.296875 148.144531 86.777344 C 149.144531 86.359375 149.339844 86.289063 149.792969 86.195313 C 150.242188 86.101563 150.214844 86 150.371094 85.769531 C 150.984375 85.742188 150.496094 85.742188 151.179688 85.511719 C 151.855469 85.289063 152.058594 85.226563 152.183594 85.054688 C 152.3125 84.902344 153.953125 84.644531 154.253906 84.710938 C 154.546875 84.777344 155 84.058594 155.0625 83.90625 C 155.125 83.738281 155.160156 82.546875 155.253906 82.316406 C 155.347656 82.097656 155.546875 81.503906 157.035156 81.382813 C 157.523438 81.414063 158.328125 80.378906 158.460938 80.019531 C 158.585938 79.664063 158.488281 78.949219 158.714844 78.664063 C 158.929688 78.371094 159.492188 78.402344 159.585938 78.214844 C 159.679688 78.015625 159.679688 76.820313 159.773438 76.566406 C 159.886719 76.304688 159.914063 74.820313 159.808594 74.617188 C 159.714844 74.425781 159.886719 74.132813 159.714844 73.972656 C 159.558594 73.8125 159.519531 73.101563 159.519531 73.101563 C 159.519531 73.101563 159.257813 72.617188 159.558594 72.421875 C 159.851563 72.226563 160.261719 71.933594 160.589844 72.445313 C 161.527344 72.558594 162.691406 72.703125 162.824219 72.359375 C 162.953125 72.003906 163.015625 71.128906 162.886719 70.933594 C 162.753906 70.742188 162.5 70.480469 162.265625 70.480469 C 162.042969 70.480469 162.078125 69.609375 161.917969 69.546875 C 161.75 69.472656 161.78125 69.609375 161.65625 69.351563 C 161.527344 69.09375 161.527344 68.835938 161.210938 68.699219 C 160.882813 68.578125 159.773438 67.96875 159.464844 68.117188 C 159.132813 68.28125 158.746094 67.632813 157.460938 67.144531 C 155.136719 66.988281 153.335938 66.847656 152.492188 67.066406 C 151.773438 67.261719 150.972656 67.792969 150.972656 67.558594 C 150.972656 67.3125 149.042969 67.558594 148.242188 67.878906 C 147.449219 68.199219 147.363281 68.199219 146.964844 68.199219 C 146.566406 68.199219 147.039063 68.597656 145.761719 68.03125 C 144.476563 67.46875 143.992188 67.46875 143.433594 67.632813 C 142.871094 67.792969 144.792969 67.792969 142.152344 67.792969 C 139.507813 67.792969 139.308594 67.800781 137.90625 68.199219 C 136.558594 68.578125 135.898438 68.199219 134.617188 68.199219 C 133.339844 68.199219 133.089844 68.433594 132.769531 68.679688 C 133.804688 67.902344 131.578125 68.992188 131.738281 68.992188 C 130.285156 68.992188 129.078125 68.355469 129.078125 68.355469 L 127.644531 68.113281 L 126.515625 67.988281 L 125.054688 67.46875 L 123.714844 66.828125 L 122.351563 66.675781 L 121.792969 66.675781 L 121.230469 66.105469 C 121.230469 66.105469 121.71875 62.902344 121.308594 62.339844 C 121.53125 61.40625 122.113281 59.863281 120.621094 59.074219 C 120.992188 57.835938 120.875 57.253906 121.035156 56.804688 C 121.203125 56.34375 121.148438 56.460938 121.164063 55.890625 C 120.875 54.933594 120.59375 54.707031 120.367188 54.058594 C 120.003906 53.703125 119.90625 53.511719 119.90625 53.269531 C 119.90625 53.027344 119.96875 52.535156 119.664063 52.242188 C 119.355469 51.960938 119.292969 51.699219 119.1875 51.605469 C 119.085938 51.519531 119.054688 51.402344 118.839844 51.402344 C 118.617188 51.402344 117.6875 51.328125 117.519531 51.460938 "/>
<path style=" stroke:none;fill-rule:nonzero;fill:rgb(100%,100%,100%);fill-opacity:1;" d="M 93.632813 22.757813 C 92.253906 24.011719 90.980469 25.667969 89.710938 27.429688 C 92.140625 26.8125 94.160156 26.617188 95.90625 27.121094 L 93.632813 22.757813 M 94.71875 19.332031 L 100.105469 30.429688 L 98.113281 29.664063 C 95.339844 27.710938 92.285156 28.195313 88.660156 30.128906 L 85.199219 29.53125 C 86.378906 27.683594 87.371094 26.289063 88.113281 25.386719 C 89.601563 23.632813 91.046875 21.96875 92.558594 20.695313 L 92.378906 20.347656 L 82.445313 26.539063 L 79.335938 26.613281 C 84.683594 23.539063 89.484375 19.414063 95.351563 17.308594 L 98.378906 17.757813 L 94.71875 19.332031 "/>
<path style=" stroke:none;fill-rule:nonzero;fill:rgb(100%,100%,100%);fill-opacity:1;" d="M 96.238281 16.925781 C 95.402344 17.203125 94.226563 17.726563 92.734375 18.492188 L 95.804688 18.863281 L 96.34375 18.632813 C 97.339844 18.203125 98.28125 18.148438 99.160156 18.46875 C 99.53125 18.609375 99.804688 18.882813 99.972656 19.289063 L 103.320313 27.28125 L 105.988281 27.972656 L 101.535156 16.40625 L 104.898438 14.976563 L 101.972656 14.472656 L 100.769531 14.984375 L 100.265625 14.828125 L 99.746094 14.433594 L 99.328125 13.894531 L 97.679688 13.808594 C 98.152344 14.9375 98.589844 15.808594 98.988281 16.417969 L 99.371094 17 C 98.492188 16.566406 97.445313 16.542969 96.238281 16.925781 "/>
<path style=" stroke:none;fill-rule:nonzero;fill:rgb(100%,100%,100%);fill-opacity:1;" d="M 110.011719 14.390625 C 109.515625 14.515625 108.929688 14.886719 108.277344 15.5 C 107.847656 15.914063 107.714844 16.378906 107.867188 16.878906 C 107.988281 17.265625 108.269531 17.40625 108.703125 17.296875 C 109.050781 17.210938 109.507813 16.953125 110.082031 16.53125 C 110.65625 16.109375 110.992188 15.777344 111.078125 15.535156 L 111.011719 14.859375 C 110.890625 14.410156 110.558594 14.25 110.011719 14.390625 M 112.890625 16.984375 L 111.832031 17.949219 C 111.503906 18.160156 110.996094 18.347656 110.320313 18.519531 C 109.191406 18.800781 108.121094 18.773438 107.089844 18.445313 C 106.046875 18.089844 105.417969 17.636719 105.171875 16.914063 C 104.9375 16.226563 105.128906 15.433594 105.824219 14.675781 C 106.511719 13.886719 107.4375 13.347656 108.570313 13.0625 C 109.777344 12.757813 110.882813 12.777344 111.859375 13.128906 C 112.835938 13.480469 113.402344 14.035156 113.574219 14.792969 C 113.742188 15.503906 113.507813 16.234375 112.890625 16.984375 M 116.121094 24.078125 C 114.722656 23.554688 112.128906 22.878906 108.058594 22.125 L 107.066406 19.105469 C 108.46875 19.414063 110.195313 19.894531 112.183594 20.5625 C 113.335938 20.949219 115.558594 21.933594 118.539063 23.566406 L 118.851563 25.160156 L 116.121094 24.078125 "/>
<path style=" stroke:none;fill-rule:nonzero;fill:rgb(100%,100%,100%);fill-opacity:1;" d="M 134.523438 10.449219 L 131.847656 8.824219 C 124.976563 9.421875 118.027344 9.554688 111.394531 11.675781 L 114.378906 12.621094 C 118.902344 11.160156 123.671875 11.234375 128.351563 10.746094 L 128.453125 12.628906 L 128.15625 12.445313 L 127.503906 11.988281 C 126.976563 11.738281 126.316406 11.628906 125.53125 11.664063 C 125.113281 11.679688 124.679688 11.832031 124.230469 12.117188 L 123.242188 12.964844 L 122.964844 12.78125 C 121.847656 12.214844 120.574219 12.003906 119.1875 12.132813 C 117.859375 12.367188 116.878906 13.082031 116.222656 13.984375 C 115.671875 14.8125 115.496094 15.648438 115.679688 16.496094 C 115.894531 17.507813 116.550781 18.199219 117.609375 18.566406 C 118.671875 18.960938 119.890625 18.835938 121.390625 18.8125 C 122.789063 18.699219 123.679688 18.214844 124.09375 17.351563 C 124.246094 17.0625 124.109375 16.632813 123.664063 16.050781 C 123.140625 15.328125 122.359375 15.019531 121.351563 15.113281 C 120.714844 15.167969 120.1875 15.359375 119.78125 15.6875 C 119.367188 15.996094 119.214844 16.449219 119.28125 16.835938 L 119.507813 17.355469 C 118.648438 17.347656 118.160156 17.054688 118.050781 16.460938 L 118.074219 16.007813 C 118.132813 15.546875 118.390625 15.132813 118.84375 14.757813 C 119.292969 14.339844 119.894531 14.246094 120.585938 14.164063 C 121.542969 14.085938 122.332031 14.203125 122.949219 14.519531 C 123.148438 14.59375 123.503906 14.84375 124.003906 15.261719 C 124.242188 15.472656 124.269531 15.746094 124.09375 16.082031 L 125.789063 15.507813 C 125.542969 14.792969 125.496094 14.316406 125.664063 14.089844 L 126.480469 13.679688 C 126.921875 13.640625 127.382813 13.742188 127.851563 13.980469 C 128.320313 14.214844 128.558594 14.480469 128.574219 14.769531 L 128.933594 21.179688 L 131.222656 22.546875 L 130.894531 10.542969 C 132.101563 10.46875 133.3125 10.269531 134.523438 10.449219 "/>
<path style=" stroke:none;fill-rule:nonzero;fill:rgb(100%,100%,100%);fill-opacity:1;" d="M 133.417969 8.722656 C 132.542969 8.683594 131.265625 8.816406 129.59375 9.050781 L 132.226563 10.40625 L 132.8125 10.363281 C 133.890625 10.289063 134.769531 10.789063 135.433594 11.449219 C 135.71875 11.746094 135.847656 12.117188 135.839844 12.5625 L 135.585938 21.222656 L 137.726563 23.101563 L 138.441406 10.730469 L 142.078125 11.023438 L 139.628906 9.210938 L 138.328125 9.105469 L 137.933594 8.730469 L 137.621094 8.136719 C 137.539063 7.78125 137.484375 7.554688 137.464844 7.464844 L 136.007813 6.621094 C 135.972656 7.84375 136.011719 8.820313 136.117188 9.546875 L 136.226563 10.242188 C 135.609375 9.449219 134.667969 8.941406 133.417969 8.722656 "/>
<path style=" stroke:none;fill-rule:nonzero;fill:rgb(100%,100%,100%);fill-opacity:1;" d="M 144.324219 19.871094 C 143.980469 19.171875 143.839844 18.511719 143.921875 17.886719 C 143.949219 17.660156 144.105469 17.074219 144.390625 16.132813 C 144.835938 14.699219 146.003906 13.523438 147.933594 12.816406 C 149.214844 12.46875 150.820313 12.394531 152.742188 12.589844 L 150.691406 10.546875 C 146.566406 9.390625 142.226563 9.589844 138 9.078125 L 140.496094 10.894531 L 145.433594 11.304688 C 143.304688 12.640625 142.128906 13.984375 141.785156 15.316406 L 141.605469 16.382813 C 141.386719 18.675781 142.296875 20.519531 144.195313 21.890625 C 144.796875 22.390625 145.675781 22.480469 146.726563 22.796875 C 147.558594 23.011719 148.316406 23 149.015625 22.769531 C 149.714844 22.535156 150.132813 22.125 150.265625 21.527344 C 150.410156 20.871094 150.121094 20.304688 149.394531 19.824219 L 148.335938 19.25 L 147.214844 19.179688 C 146.195313 19.273438 145.683594 19.894531 145.742188 20.53125 L 146.171875 21.367188 C 145.371094 21.214844 144.761719 20.71875 144.324219 19.871094 "/>
<path style=" stroke:none;fill-rule:nonzero;fill:rgb(100%,100%,100%);fill-opacity:1;" d="M 155.824219 13.476563 C 160.578125 14.382813 165.007813 16.25 169.394531 18.242188 L 167.59375 15.714844 C 161.859375 12.785156 155.429688 11.898438 149.28125 10.199219 L 151.546875 12.410156 L 153.160156 12.816406 L 151.726563 19.070313 L 153.933594 21.585938 C 155.667969 19.804688 158.222656 18.6875 161.332031 18.933594 C 160.761719 19.652344 160.34375 20.414063 160.066406 21.226563 C 159.722656 22.21875 159.53125 23.902344 159.40625 26.246094 L 160.847656 27.570313 C 161.070313 25.839844 161.214844 24.867188 161.316406 24.660156 L 161.578125 23.679688 C 162.144531 22.164063 163.503906 20.765625 165.828125 19.539063 L 163.128906 16.570313 C 161.011719 16.105469 159.078125 16.484375 157.640625 16.730469 C 156.328125 17.046875 155.378906 17.308594 154.769531 17.5 L 155.824219 13.476563 "/>
<path style=" stroke:none;fill-rule:nonzero;fill:rgb(100%,100%,100%);fill-opacity:1;" d="M 186.320313 27.953125 L 185.09375 25.25 C 184.421875 24.765625 184.078125 24.394531 184.070313 24.132813 L 184.273438 23.21875 C 184.050781 22.730469 183.714844 22.085938 183.253906 21.277344 L 181.972656 23.671875 L 180.855469 26.058594 L 180.71875 25.523438 C 180.203125 23.183594 179.492188 21.722656 178.710938 21.230469 C 178.558594 21.140625 178.273438 21.003906 177.855469 20.832031 C 176.296875 20.238281 175.089844 19.988281 174.054688 20.441406 L 173.644531 19.550781 C 173.628906 19.527344 173.410156 19.21875 172.984375 18.621094 C 172.460938 18.050781 171.757813 17.570313 170.886719 17.195313 L 166.496094 15.3125 L 168.28125 17.828125 C 170.1875 18.644531 170.808594 18.914063 170.152344 18.632813 C 170.78125 18.917969 171.269531 19.261719 171.625 19.660156 L 172.042969 20.554688 L 171.605469 20.539063 C 170.550781 20.59375 169.851563 20.671875 169.492188 20.761719 C 168.855469 20.929688 168.433594 21.265625 168.210938 21.761719 L 168.113281 22.234375 C 168.132813 23.214844 168.664063 23.925781 169.722656 24.378906 C 170.773438 24.851563 171.832031 24.828125 172.808594 24.527344 C 173.109375 25.507813 173.664063 26.257813 174.507813 26.789063 C 175.503906 27.414063 176.300781 27.589844 176.90625 27.316406 C 177.128906 27.257813 177.355469 27.046875 177.585938 26.679688 C 177.839844 26.261719 177.839844 25.714844 177.578125 25.039063 C 177.429688 24.6875 177.089844 24.09375 176.546875 23.242188 C 176.847656 23.050781 177.363281 23.148438 178.09375 23.535156 C 178.605469 23.800781 179.011719 24.472656 179.285156 25.523438 C 179.519531 26.449219 179.550781 27.027344 179.394531 27.273438 L 175.417969 33.304688 L 176.480469 35.886719 L 183.246094 26 L 186.320313 27.953125 "/>
<path style=" stroke:none;fill-rule:nonzero;fill:rgb(100%,100%,100%);fill-opacity:1;" d="M 59.972656 71.425781 L 62.535156 64.238281 C 61.582031 65.179688 60.65625 65.496094 59.769531 65.140625 C 59.789063 66.46875 59.753906 67.261719 59.648438 67.546875 C 59.34375 68.402344 58.449219 69.347656 56.945313 70.46875 L 59.972656 71.425781 M 59.089844 74.070313 L 47.371094 70.832031 L 50.128906 68.316406 L 55.230469 69.929688 C 55.503906 69.890625 55.855469 69.652344 56.28125 69.203125 C 56.710938 68.757813 57.003906 68.308594 57.167969 67.855469 C 57.394531 67.214844 57.390625 66.546875 57.152344 65.84375 C 56.207031 62.9375 55.738281 60.929688 56.09375 60.25 L 56.476563 59.449219 C 56.914063 58.597656 57.289063 58.035156 57.605469 57.761719 C 58.148438 57.003906 59.46875 56.292969 61.507813 55.730469 L 61.523438 58.289063 L 60.308594 58.25 C 59.675781 58.445313 59.273438 58.703125 59.117188 59.011719 C 58.980469 59.328125 59 60.65625 59.523438 62.992188 C 60.890625 63.300781 62.128906 62.636719 63.0625 60.90625 C 63.683594 59.78125 64.097656 59.074219 64.316406 58.789063 C 64.714844 58.285156 65.261719 57.882813 65.949219 57.585938 L 66.328125 57.195313 L 68.730469 55.636719 C 65.160156 62.042969 62.136719 68.75 60.355469 75.875 L 58.21875 78.246094 L 59.089844 74.070313 "/>
<path style=" stroke:none;fill-rule:nonzero;fill:rgb(100%,100%,100%);fill-opacity:1;" d="M 56.539063 99.460938 L 58 96.546875 C 57.851563 88.957031 58.910156 81.441406 60.726563 74.089844 L 58.589844 76.46875 L 57.011719 84.121094 L 53.785156 83.683594 L 52.664063 83.65625 C 51.359375 84.136719 50.636719 85.328125 50.507813 87.1875 C 50.445313 88.085938 50.566406 89.03125 50.863281 90.003906 C 51.390625 91.710938 51.820313 92.792969 52.148438 93.3125 C 51.804688 93.675781 51.46875 93.855469 51.148438 93.851563 C 50.796875 93.851563 50.378906 93.574219 49.894531 93.011719 C 49.472656 92.476563 49.15625 91.679688 48.953125 90.617188 C 48.75 89.554688 48.683594 88.46875 48.765625 87.367188 C 48.886719 85.589844 49.285156 84.085938 49.953125 82.902344 C 50.925781 81.554688 52.171875 80.53125 53.667969 79.859375 C 54.980469 79.261719 56.214844 79.019531 57.386719 79.09375 L 58.445313 77.175781 C 57.058594 77.097656 56.335938 77.054688 56.273438 77.042969 C 54.542969 76.988281 52.980469 77.402344 51.589844 78.320313 C 49.902344 79.449219 48.773438 80.382813 48.222656 81.027344 C 46.820313 82.515625 46.367188 84.792969 46.113281 87.667969 C 45.964844 89.8125 46.136719 91.6875 46.632813 93.238281 C 47.304688 95.53125 48.890625 96.609375 50.578125 96.5625 C 52.316406 96.519531 53.390625 95.300781 54.734375 93.042969 L 54.964844 92.390625 L 54.664063 91.433594 L 54.351563 90.960938 L 54.3125 90.917969 L 54.273438 90.789063 C 53.320313 89.328125 52.796875 87.902344 52.707031 86.582031 C 52.726563 86.527344 53.167969 86.542969 54.035156 86.632813 L 56.828125 86.90625 C 56.527344 91.089844 56.113281 95.269531 56.539063 99.460938 M 44 90.304688 C 44.429688 90.324219 44.8125 90.03125 45.15625 89.433594 C 45.496094 88.835938 45.695313 88.109375 45.753906 87.257813 C 45.816406 86.398438 45.695313 85.648438 45.398438 84.996094 C 45.101563 84.34375 44.738281 83.984375 44.3125 83.9375 C 43.882813 83.886719 43.5 84.167969 43.152344 84.800781 C 42.808594 85.429688 42.601563 86.195313 42.539063 87.085938 C 42.453125 88.320313 42.6875 89.261719 43.246094 89.890625 L 44 90.304688 "/>
<path style=" stroke:none;fill-rule:nonzero;fill:rgb(100%,100%,100%);fill-opacity:1;" d="M 53.460938 105.683594 C 53.292969 105.390625 52.921875 104.75 52.351563 103.726563 C 52.074219 106.472656 51.433594 108.746094 50.433594 110.5625 L 55.175781 109.65625 C 54.53125 107.96875 53.960938 106.636719 53.460938 105.683594 M 55.03125 118.398438 C 55.492188 118.109375 55.832031 117.484375 56.0625 116.535156 C 56.378906 115.242188 56.34375 113.886719 55.953125 112.429688 L 46.722656 114.550781 L 47.128906 112.703125 C 47.707031 112.078125 48.136719 111.65625 48.261719 111.445313 C 48.53125 111.085938 48.835938 110.472656 49.183594 109.621094 C 49.636719 108.539063 49.929688 107.625 50.058594 106.859375 C 50.363281 105.152344 50.273438 103.371094 50.378906 101.433594 L 52.378906 97.945313 C 54.066406 101.660156 55.828125 105.363281 57.214844 109.261719 L 57.710938 109.167969 C 57.035156 105.203125 56.46875 101.222656 56.421875 97.191406 L 57.914063 94.347656 C 57.992188 102.429688 59.242188 110.46875 61.703125 118.152344 L 61.132813 121.273438 C 59.882813 118.242188 59.097656 115.066406 58.308594 111.890625 L 57.953125 111.972656 C 58.316406 113.378906 58.320313 114.960938 57.984375 116.792969 C 57.5 119.105469 56.851563 120.457031 55.371094 120.925781 C 54.769531 121.097656 54.140625 120.933594 53.476563 120.40625 C 52.714844 119.855469 52.261719 118.96875 51.964844 117.824219 C 51.738281 116.96875 51.699219 116.171875 51.847656 115.453125 C 51.992188 114.738281 52.28125 114.332031 52.710938 114.226563 C 53.199219 114.109375 53.757813 114.460938 54.390625 115.261719 L 54.882813 116.621094 L 55.03125 118.398438 "/>
<path style=" stroke:none;fill-rule:nonzero;fill:rgb(100%,100%,100%);fill-opacity:1;" d="M 66.777344 139.039063 L 70.78125 140.929688 C 70.585938 140.019531 70.253906 139.246094 69.765625 138.59375 C 68.679688 137.164063 67.835938 136.167969 66.789063 135.84375 C 67.109375 136.460938 67.25 137.054688 67.222656 137.636719 L 66.777344 139.039063 M 72.925781 145.160156 L 73.640625 144.175781 L 76.621094 141.359375 L 77.25 143.164063 L 77.226563 143.441406 C 76.984375 143.722656 76.875 143.992188 76.902344 144.25 L 77.15625 144.765625 L 77.613281 145.371094 L 78.289063 148.476563 L 75.800781 145.730469 L 66.972656 153.585938 C 66.578125 152.6875 66.175781 151.507813 65.847656 150.03125 L 70.683594 146.480469 C 71.019531 145.410156 71.152344 144.46875 70.988281 143.699219 C 68.613281 142.621094 66.007813 141.5625 63.640625 140.210938 L 62.210938 136.308594 L 64.523438 137.609375 L 65.058594 137.570313 C 65.574219 137.242188 65.671875 136.820313 65.355469 136.300781 L 64.585938 135.339844 C 63.964844 134.671875 63.601563 134.246094 63.5 134.082031 L 63.125 132.847656 C 63.128906 132.304688 63.292969 131.949219 63.527344 131.824219 C 63.867188 131.644531 64.484375 131.832031 65.53125 132.277344 C 66.421875 132.683594 67.148438 133.097656 67.71875 133.535156 C 68.773438 134.34375 69.738281 135.527344 70.734375 137.058594 C 71.75 138.386719 72.414063 139.785156 72.773438 141.308594 C 73.117188 142.664063 73.085938 144.015625 72.925781 145.160156 "/>
<path style=" stroke:none;fill-rule:nonzero;fill:rgb(100%,100%,100%);fill-opacity:1;" d="M 95.675781 159.488281 L 95.699219 157.757813 C 95.015625 156.445313 94.4375 155.445313 93.941406 154.734375 C 92.300781 152.242188 90.515625 150.085938 88.308594 148.375 C 87.582031 147.707031 86.890625 147.214844 86.214844 146.894531 C 84.992188 146.292969 83.945313 145.914063 83.082031 145.753906 C 82.746094 145.703125 82.09375 145.679688 81.179688 145.609375 C 80.777344 145.578125 80.414063 145.707031 80.097656 146.015625 L 79.894531 146.898438 L 80.136719 148.070313 L 76.660156 144.269531 L 77.339844 147.40625 L 79.203125 149.394531 L 71.921875 156.765625 L 73.296875 160.125 L 81.351563 151.34375 L 84.335938 154.058594 L 83.308594 150.945313 L 81.84375 149.613281 L 81.90625 148.566406 C 81.980469 148.449219 82.390625 148.425781 83.121094 148.472656 L 84.679688 148.65625 C 86.28125 149.238281 87.460938 150.054688 88.558594 150.777344 C 90.496094 152.175781 91.871094 153.878906 92.992188 155.617188 L 95.675781 159.488281 "/>
<path style=" stroke:none;fill-rule:nonzero;fill:rgb(100%,100%,100%);fill-opacity:1;" d="M 91.574219 162.269531 L 84.6875 159.964844 C 86.65625 162.480469 88.101563 164.632813 88.867188 166.652344 L 91.574219 162.269531 M 95.304688 161.546875 L 89.40625 171.90625 L 88.339844 170.320313 C 87.742188 168.367188 87.453125 167.324219 87.386719 167.140625 C 86.988281 166.035156 86.21875 165.035156 85.34375 163.757813 C 84.238281 162.253906 82.949219 160.910156 81.449219 159.703125 L 80.476563 155.875 C 84.941406 157.390625 88.871094 159.035156 92.722656 160.40625 L 92.917969 160.09375 C 89.378906 158.097656 86.214844 155.496094 83.09375 152.925781 L 82.054688 149.804688 C 86.394531 154.097656 91.546875 157.445313 96.761719 160.550781 L 98.535156 163.269531 L 95.304688 161.546875 M 82.277344 165.828125 C 81.660156 165.371094 81.195313 164.847656 80.894531 164.257813 C 80.589844 163.667969 80.554688 163.226563 80.789063 162.925781 C 81.007813 162.636719 81.410156 162.539063 81.980469 162.625 C 82.554688 162.714844 83.121094 162.96875 83.695313 163.394531 C 84.289063 163.839844 84.734375 164.339844 85.035156 164.90625 C 85.332031 165.472656 85.386719 165.910156 85.179688 166.21875 C 84.960938 166.539063 84.574219 166.671875 84.011719 166.597656 C 83.449219 166.527344 82.867188 166.273438 82.277344 165.828125 "/>
<path style=" stroke:none;fill-rule:nonzero;fill:rgb(100%,100%,100%);fill-opacity:1;" d="M 108.191406 170.25 C 106.074219 169.925781 103.699219 169.808594 101.101563 169.652344 C 103.523438 171.433594 105.40625 173.117188 106.640625 174.917969 L 108.191406 170.25 M 111.707031 168.507813 L 108.25 180.347656 L 106.671875 178.34375 C 105.417969 174.785156 102.308594 172.550781 97.773438 169.957031 L 95.980469 166.480469 C 98.605469 166.714844 100.515625 166.914063 101.808594 167.132813 C 104.394531 167.484375 106.808594 167.648438 108.925781 168.042969 L 109.046875 167.671875 C 104.980469 166.34375 101.082031 164.621094 97.28125 162.664063 L 95.671875 159.890625 C 101.300781 163.140625 107.332031 165.730469 113.636719 167.339844 L 115.921875 169.589844 L 111.707031 168.507813 "/>
<path style=" stroke:none;fill-rule:nonzero;fill:rgb(100%,100%,100%);fill-opacity:1;" d="M 129.671875 175.558594 C 129.703125 174.839844 129.308594 174.152344 128.511719 173.503906 C 128.007813 173.082031 127.304688 172.683594 126.398438 172.320313 C 125.414063 171.945313 124.539063 171.574219 123.738281 171.441406 L 123.351563 170.917969 C 126.59375 171.515625 129.914063 171.359375 133.195313 171.632813 L 130.464844 169.882813 C 124.089844 169.839844 117.824219 168.484375 111.707031 166.847656 L 114.109375 169.121094 C 116.027344 169.605469 117.929688 170.183594 119.910156 170.390625 L 121.109375 171.109375 C 119.828125 171.191406 119.136719 171.234375 119.058594 171.238281 C 118.316406 171.316406 117.707031 171.503906 117.25 171.683594 C 116.363281 172.019531 115.9375 172.433594 116.003906 172.921875 C 116.121094 173.824219 116.984375 174.507813 118.640625 174.71875 C 119.574219 174.863281 120.425781 174.8125 121.183594 174.566406 C 122.449219 174.171875 123.160156 173.703125 123.335938 173.167969 L 123.832031 173.222656 C 124.714844 173.367188 125.441406 173.59375 126.039063 173.847656 C 126.742188 174.15625 127.078125 174.546875 127.046875 175.007813 C 127.023438 175.265625 126.8125 175.484375 126.390625 175.664063 C 124.597656 176.542969 122.597656 176.507813 120.40625 176.226563 C 118.125 175.9375 115.742188 175.015625 113.421875 173.335938 L 115.503906 177.90625 C 118.449219 178.785156 121.25 179.679688 123.894531 180.921875 C 127.351563 182.253906 130.09375 183.347656 131.992188 184.484375 C 132.460938 184.742188 133.273438 185.289063 134.460938 185.890625 L 132.941406 183.285156 L 129.402344 181.214844 C 127.976563 180.425781 126.6875 179.820313 125.496094 179.417969 C 124.304688 179.046875 123.675781 178.671875 123.558594 178.667969 C 127.613281 178.273438 129.613281 177.035156 129.671875 175.558594 "/>
<path style=" stroke:none;fill-rule:nonzero;fill:rgb(100%,100%,100%);fill-opacity:1;" d="M 142.226563 175.839844 C 143.203125 176.125 143.949219 176.46875 144.441406 176.871094 L 146.652344 179.105469 C 147.484375 180.152344 147.894531 180.976563 147.839844 181.585938 L 149.847656 182.480469 L 147.566406 170.265625 C 148.933594 170.128906 150.242188 169.691406 151.574219 169.371094 L 148.394531 168.515625 C 141.84375 169.570313 135.171875 170.425781 128.519531 169.78125 L 131.257813 171.53125 C 135.773438 171.585938 140.347656 171.507813 144.804688 170.6875 L 145.535156 175.59375 L 145.246094 175.382813 C 143.074219 173.90625 140.738281 173.320313 138.011719 173.363281 C 136.484375 173.441406 135.210938 173.785156 134.148438 174.386719 C 133.085938 175.019531 132.539063 175.601563 132.53125 176.445313 C 132.507813 178.046875 134.046875 178.820313 137.160156 178.628906 C 139.464844 178.515625 140.570313 177.867188 140.464844 176.695313 C 140.429688 176.285156 140.019531 175.828125 139.257813 175.316406 C 140.164063 175.273438 141.152344 175.550781 142.226563 175.839844 "/>
<path style=" stroke:none;fill-rule:nonzero;fill:rgb(100%,100%,100%);fill-opacity:1;" d="M 168.902344 166.96875 C 168.675781 167.210938 168.171875 167.75 167.371094 168.59375 C 170.070313 168.007813 172.523438 168.066406 174.480469 168.304688 L 172.121094 164.089844 C 170.800781 165.367188 169.640625 166.175781 168.902344 166.96875 M 180.449219 161.441406 C 180.03125 161.101563 179.347656 161.003906 178.410156 161.132813 C 177.089844 161.246094 175.78125 161.652344 174.507813 162.457031 L 179.425781 170.546875 L 177.523438 170.710938 C 176.734375 170.332031 176.226563 170.109375 175.988281 170.058594 C 175.570313 169.933594 174.914063 169.882813 174.019531 169.851563 C 172.839844 169.746094 171.867188 169.734375 171.097656 169.835938 C 169.378906 170.089844 167.644531 170.570313 165.863281 171.289063 L 161.902344 170.441406 C 164.914063 167.730469 167.835938 164.769531 171.109375 162.28125 L 170.863281 161.839844 C 167.300781 163.671875 163.738281 165.585938 159.910156 166.824219 L 156.730469 166.277344 C 164.441406 163.867188 171.613281 159.933594 178.113281 155.183594 L 181.308594 154.808594 C 178.683594 156.761719 176.121094 158.804688 173.246094 160.390625 L 173.441406 160.703125 C 174.65625 159.914063 176.257813 159.5625 178.015625 159.179688 C 180.257813 158.761719 181.871094 159.125 182.746094 160.332031 C 183.101563 160.851563 183.136719 161.492188 182.832031 162.273438 C 182.515625 163.121094 181.871094 163.90625 180.921875 164.609375 C 180.199219 165.121094 179.425781 165.355469 178.695313 165.441406 C 177.960938 165.515625 177.476563 165.363281 177.246094 164.988281 C 176.976563 164.566406 177.140625 163.929688 177.71875 163.097656 L 178.875 162.234375 C 179.425781 161.835938 179.945313 161.566406 180.449219 161.441406 "/>
<path style=" stroke:none;fill-rule:nonzero;fill:rgb(100%,100%,100%);fill-opacity:1;" d="M 190.011719 158.730469 C 189.128906 158.625 188.488281 158.328125 188.078125 157.855469 C 187.929688 157.679688 187.613281 157.164063 187.125 156.304688 C 186.386719 154.972656 186.464844 153.257813 187.300781 151.21875 C 187.914063 149.878906 188.75 148.28125 189.9375 146.539063 L 187.113281 147.433594 C 183.902344 150.578125 180.53125 153.554688 176.847656 156.132813 L 180.042969 155.75 L 184.230469 152.3125 C 183.6875 154.902344 183.625 156.792969 184.253906 157.976563 L 184.855469 158.867188 C 186.3125 160.683594 188.546875 161.222656 191.507813 160.113281 C 192.476563 159.773438 193.546875 159.066406 194.703125 158.003906 C 195.644531 157.199219 196.21875 156.257813 196.539063 155.308594 C 196.863281 154.367188 196.792969 153.695313 196.34375 153.28125 C 195.855469 152.824219 195.140625 152.894531 194.214844 153.480469 C 193.808594 153.621094 193.40625 153.9375 192.976563 154.382813 L 192.039063 155.515625 C 191.328125 156.660156 191.269531 157.417969 191.886719 157.769531 C 192.171875 157.945313 192.542969 157.96875 193.007813 157.835938 C 192.097656 158.539063 191.09375 158.84375 190.011719 158.730469 "/>
<path style=" stroke:none;fill-rule:nonzero;fill:rgb(100%,100%,100%);fill-opacity:1;" d="M 196.996094 142.9375 L 197.601563 138.617188 C 196.769531 139.074219 196.117188 139.621094 195.628906 140.269531 C 194.554688 141.703125 194.050781 142.957031 194.089844 144.050781 C 194.535156 143.527344 195.023438 143.183594 195.566406 143.003906 C 196.105469 142.828125 196.585938 142.804688 196.996094 142.9375 M 200.789063 135.140625 L 199.617188 134.777344 L 195.96875 132.867188 L 197.546875 131.734375 L 197.828125 131.671875 L 198.714844 131.722656 L 199.140625 131.328125 L 199.59375 130.71875 L 202.191406 129.007813 L 200.488281 132.289063 L 210.785156 138.078125 C 210.035156 138.734375 208.996094 139.464844 207.683594 140.238281 L 202.753906 136.824219 C 201.628906 136.851563 200.742188 137.0625 200.097656 137.488281 C 200.078125 140.238281 199.523438 142.757813 199.15625 145.546875 L 195.984375 148.207031 L 196.476563 145.613281 L 196.257813 145.109375 C 195.78125 144.726563 195.359375 144.785156 194.996094 145.273438 C 194.824219 145.496094 194.582031 145.816406 194.3125 146.285156 C 193.847656 147.0625 193.546875 147.53125 193.414063 147.675781 L 192.328125 148.394531 C 191.804688 148.558594 191.445313 148.546875 191.246094 148.359375 C 190.964844 148.097656 190.902344 147.410156 191.027344 146.320313 C 191.148438 145.371094 191.328125 144.570313 191.585938 143.910156 C 192.109375 142.738281 192.714844 141.28125 193.835938 139.832031 C 194.785156 138.464844 196.066406 137.496094 197.285156 136.601563 C 198.421875 135.8125 199.59375 135.324219 200.789063 135.140625 "/>
<path style=" stroke:none;fill-rule:nonzero;fill:rgb(100%,100%,100%);fill-opacity:1;" d="M 196.835938 123.535156 L 195.554688 125.722656 C 195.449219 129.960938 194.921875 134.363281 193.851563 138.714844 C 195.128906 137.136719 196.207031 135.429688 197.21875 133.679688 C 197.441406 130.253906 197.203125 126.808594 196.835938 123.535156 "/>
<path style=" stroke:none;fill-rule:nonzero;fill:rgb(100%,100%,100%);fill-opacity:1;" d="M 200.308594 129.179688 C 199.882813 129.996094 199.238281 131.171875 198.378906 132.722656 L 201.171875 131.09375 L 201.453125 130.511719 C 201.964844 129.449219 202.667969 128.726563 203.574219 128.316406 C 203.960938 128.140625 204.355469 128.144531 204.757813 128.335938 L 212.589844 132.039063 L 215.523438 129.839844 L 204.132813 124.949219 L 205.539063 121.214844 L 203.085938 123.242188 L 202.558594 124.511719 L 202.058594 124.761719 L 201.386719 124.847656 C 201.019531 124.800781 200.796875 124.765625 200.699219 124.753906 L 199.390625 125.796875 C 200.492188 126.316406 201.402344 126.671875 202.113281 126.851563 L 202.792969 127.019531 C 201.8125 127.328125 200.992188 128.042969 200.308594 129.179688 "/>
<path style=" stroke:none;fill-rule:nonzero;fill:rgb(100%,100%,100%);fill-opacity:1;" d="M 215.078125 120.265625 C 214.238281 120.621094 213.519531 120.691406 212.921875 120.496094 C 212.703125 120.429688 212.171875 120.148438 211.324219 119.664063 C 210.0625 118.925781 209.210938 117.410156 208.785156 115.203125 C 208.496094 113.710938 208.511719 111.945313 208.714844 109.859375 L 206.636719 112.0625 C 205.65625 116.445313 204.128906 120.679688 202.410156 124.820313 L 204.941406 122.84375 L 206.808594 117.753906 C 207.519531 120.195313 208.445313 121.847656 209.628906 122.554688 L 210.609375 123.007813 C 212.769531 123.804688 214.914063 123.09375 217.078125 120.679688 C 217.703125 119.882813 218.214844 118.707031 218.605469 117.183594 C 218.914063 115.984375 218.992188 114.898438 218.824219 113.929688 C 218.660156 112.96875 218.28125 112.433594 217.679688 112.308594 C 217.023438 112.175781 216.421875 112.597656 215.871094 113.570313 C 215.585938 113.894531 215.363281 114.359375 215.210938 114.964844 L 215.042969 116.433594 C 215.074219 117.789063 215.433594 118.476563 216.132813 118.460938 C 216.46875 118.460938 216.789063 118.285156 217.101563 117.929688 C 216.71875 119.011719 216.074219 119.804688 215.078125 120.265625 "/>
<path style=" stroke:none;fill-rule:nonzero;fill:rgb(100%,100%,100%);fill-opacity:1;" d="M 212.679688 99.234375 L 213.9375 106.390625 C 215.238281 103.464844 216.382813 101.160156 217.824219 99.535156 L 212.679688 99.234375 M 210.273438 96.296875 L 222.1875 96.558594 L 221.300781 98.25 C 219.867188 99.703125 219.085938 100.453125 218.957031 100.597656 C 218.171875 101.476563 217.652344 102.625 216.980469 104.007813 C 216.171875 105.695313 215.589844 107.46875 215.234375 109.363281 L 212.367188 112.046875 C 211.511719 107.382813 211.148438 103.160156 210.496094 99.109375 L 210.128906 99.089844 C 210.082031 103.160156 209.238281 107.164063 208.53125 111.148438 L 206.253906 113.535156 C 207.933594 107.679688 208.472656 101.5625 208.703125 95.488281 C 209.34375 94.558594 209.734375 93.609375 210.222656 92.640625 C 210.34375 93.855469 210.390625 95.078125 210.273438 96.296875 M 220.253906 105.71875 L 219.519531 107.679688 C 219.144531 108.230469 218.765625 108.46875 218.394531 108.40625 C 218.03125 108.347656 217.757813 108.046875 217.566406 107.503906 C 217.371094 106.960938 217.328125 106.335938 217.433594 105.632813 L 218.132813 103.734375 C 218.507813 103.199219 218.804688 102.941406 219.195313 102.976563 C 219.558594 103.015625 219.914063 103.300781 220.109375 103.828125 C 220.3125 104.355469 220.363281 104.984375 220.253906 105.71875 "/>
<path style=" stroke:none;fill-rule:nonzero;fill:rgb(100%,100%,100%);fill-opacity:1;" d="M 206.800781 71.585938 C 206.558594 72.640625 206.484375 73.621094 206.089844 74.679688 C 206.21875 75.546875 206.199219 76.085938 206.019531 76.289063 L 205.238281 76.847656 C 205.046875 77.378906 204.824219 78.097656 204.566406 78.992188 L 207.164063 78.1875 L 209.636719 77.226563 L 209.355469 77.753906 C 208.082031 79.988281 207.527344 81.488281 207.734375 82.449219 C 207.773438 82.628906 207.878906 82.945313 208.050781 83.402344 C 208.652344 85.066406 209.128906 86.289063 210.003906 86.984375 L 209.40625 87.890625 C 209.390625 87.921875 209.222656 88.300781 208.890625 89.019531 C 208.628906 89.808594 208.527344 90.695313 208.601563 91.699219 C 208.746094 93.371094 208.871094 95.039063 208.699219 96.71875 C 209.246094 95.808594 209.953125 94.875 210.371094 93.929688 C 210.210938 91.667969 210.160156 90.925781 210.214844 91.707031 L 210.4375 89.75 L 211.035156 88.847656 L 211.222656 89.285156 C 211.761719 90.296875 212.15625 90.972656 212.410156 91.292969 C 212.855469 91.859375 213.347656 92.140625 213.890625 92.121094 L 214.359375 91.984375 C 215.210938 91.449219 215.589844 90.445313 215.488281 89 C 215.390625 87.566406 214.933594 86.425781 214.128906 85.628906 C 214.6875 84.679688 215.097656 83.554688 214.796875 82.34375 C 214.496094 80.90625 214.027344 80.003906 213.386719 79.660156 L 212.4375 79.535156 C 211.953125 79.625 211.570313 80.042969 211.285156 80.765625 C 211.144531 81.152344 210.96875 81.882813 210.75 82.933594 C 210.390625 82.796875 210.085938 82.28125 209.835938 81.398438 C 209.65625 80.773438 209.839844 79.96875 210.390625 78.9375 C 210.871094 78.035156 211.246094 77.535156 211.53125 77.476563 L 218.609375 76.050781 L 219.496094 72.425781 L 207.898438 75.40625 C 207.691406 74.089844 207.296875 72.824219 206.800781 71.585938 "/>
<path style=" stroke:none;fill-rule:nonzero;fill:rgb(100%,100%,100%);fill-opacity:1;" d="M 208.214844 61.824219 C 208.171875 60.8125 208.265625 60.003906 208.492188 59.414063 L 209.921875 56.65625 C 210.660156 55.550781 211.316406 54.914063 211.921875 54.78125 L 212.136719 52.613281 L 201.175781 58.464844 L 199.289063 54.804688 L 199.238281 58.210938 C 202.488281 64.011719 204.910156 70.277344 206.46875 76.722656 L 207.453125 73.566406 C 205.722656 69.386719 204.8125 64.851563 202.460938 60.941406 L 206.921875 58.769531 L 206.8125 59.109375 C 206.144531 61.582031 206.230469 64.011719 207.046875 66.613281 C 207.558594 68.050781 208.253906 69.171875 209.132813 70.007813 C 210.015625 70.84375 210.855469 71.15625 211.644531 70.921875 C 213.132813 70.480469 213.359375 68.789063 212.308594 65.855469 C 211.53125 63.675781 210.59375 62.8125 209.511719 63.265625 C 209.128906 63.421875 208.808594 63.953125 208.539063 64.835938 C 208.253906 63.976563 208.1875 62.960938 208.214844 61.824219 "/>
<path style=" stroke:none;fill-rule:evenodd;fill:rgb(92.89856%,10.998535%,14.099121%);fill-opacity:1;" d="M 18.949219 119.234375 C 18.949219 119.234375 4.523438 98.984375 0.0859375 95.652344 C 0.0859375 95.652344 -3.519531 150.023438 31.707031 178.316406 L 40.585938 171.101563 L 63.882813 172.214844 C 63.882813 172.214844 33.371094 148.082031 28.101563 99.265625 L 18.949219 119.234375 "/>
<g clip-path="url(#clip1)" clip-rule="nonzero">
<path style=" stroke:none;fill-rule:evenodd;fill:rgb(92.89856%,10.998535%,14.099121%);fill-opacity:1;" d="M 232.835938 120.46875 C 218.09375 167.3125 183.464844 184.996094 183.464844 184.996094 L 206.507813 188.46875 L 213.796875 197.28125 C 253.886719 176.445313 261.007813 122.429688 261.007813 122.429688 C 256.003906 124.820313 237.894531 141.84375 237.894531 141.84375 L 232.835938 120.46875 "/>
</g>
<g clip-path="url(#clip2)" clip-rule="nonzero">
<path style=" stroke:none;fill-rule:evenodd;fill:rgb(92.89856%,10.998535%,14.099121%);fill-opacity:1;" d="M 46.132813 163.335938 L 21.445313 188.574219 C 21.445313 188.574219 62.773438 236.835938 126.570313 238.503906 C 126.570313 238.503906 174.554688 243.773438 221.992188 212.707031 L 206.179688 183.863281 C 206.179688 183.863281 178.4375 209.378906 121.296875 204.664063 C 121.296875 204.664063 69.902344 201.550781 46.132813 163.335938 "/>
</g>
<path style=" stroke:none;fill-rule:nonzero;fill:rgb(100%,100%,100%);fill-opacity:1;" d="M 45.125 195.78125 C 45.292969 195.121094 45.496094 194.667969 45.730469 194.410156 C 47.042969 192.9375 49.027344 192.625 51.585938 193.390625 C 53.035156 193.851563 54.683594 194.511719 56.328125 195.628906 L 55.046875 192.914063 C 53.695313 191.972656 52.347656 191.222656 50.714844 190.847656 C 47.734375 190.164063 45.597656 190.433594 44.050781 191.921875 C 42.519531 193.347656 42.5 195.691406 43.902344 198.304688 C 44.363281 199.1875 45.164063 200.113281 46.300781 201.070313 C 47.183594 201.765625 48.097656 202.171875 48.996094 202.359375 C 49.902344 202.539063 50.511719 202.40625 50.835938 201.972656 C 51.046875 201.695313 51.023438 201.269531 50.773438 200.691406 C 50.527344 200.117188 50.121094 199.628906 49.550781 199.222656 C 48.648438 198.609375 48.058594 198.191406 47.71875 198.070313 C 47.015625 197.816406 46.480469 197.898438 46.125 198.324219 L 46.167969 199.234375 C 45.15625 198.140625 44.804688 196.980469 45.125 195.78125 "/>
<path style=" stroke:none;fill-rule:nonzero;fill:rgb(100%,100%,100%);fill-opacity:1;" d="M 67.761719 203.269531 L 61.460938 199.292969 C 62.191406 200.382813 62.335938 201.300781 61.863281 202.027344 C 63.09375 202.300781 63.824219 202.515625 64.074219 202.671875 C 64.820313 203.140625 65.550781 204.164063 66.300781 205.757813 L 67.761719 203.269531 M 70.140625 204.59375 L 64.757813 214.246094 L 63.019531 211.363281 L 65.476563 207.167969 C 65.496094 206.917969 65.339844 206.550781 65.007813 206.070313 L 63.925781 204.980469 C 63.375 204.628906 62.757813 204.488281 62.074219 204.550781 C 59.230469 204.8125 57.429688 204.742188 56.777344 204.417969 L 56.0625 203.988281 C 55.308594 203.507813 54.867188 203.035156 54.648438 202.71875 C 54.027344 202.105469 53.550781 200.792969 53.277344 198.832031 L 55.652344 199.246094 L 55.460938 200.347656 C 55.5625 200.957031 55.746094 201.363281 56.007813 201.558594 C 56.257813 201.773438 57.542969 201.886719 59.851563 201.78125 C 60.394531 200.527344 59.800781 199.476563 58.296875 198.300781 C 57.316406 197.535156 56.703125 197.027344 56.460938 196.777344 L 55.519531 195.0625 L 55.195313 194.640625 L 53.980469 192.125 C 59.6875 196.496094 65.707031 200.5625 72.089844 203.945313 L 73.851563 206.488281 L 70.140625 204.59375 "/>
<path style=" stroke:none;fill-rule:nonzero;fill:rgb(100%,100%,100%);fill-opacity:1;" d="M 82.503906 213.226563 C 80.441406 212.886719 78.164063 212.675781 75.796875 212.21875 C 77.949219 214.199219 79.707031 215.703125 80.789063 217.359375 L 82.503906 213.226563 M 85.992188 211.917969 L 81.929688 222.371094 L 80.628906 220.425781 C 79.59375 217.363281 76.882813 214.921875 72.65625 212.375 L 70.980469 209.109375 C 73.445313 209.417969 75.273438 209.691406 76.507813 209.949219 C 78.914063 210.550781 81.214844 210.890625 83.3125 211.273438 L 83.449219 210.945313 C 79.46875 209.65625 75.898438 207.425781 72.148438 205.621094 L 70.441406 203.105469 C 76.136719 206.082031 81.832031 209.054688 87.925781 211.09375 L 89.957031 213.4375 L 85.992188 211.917969 "/>
<path style=" stroke:none;fill-rule:nonzero;fill:rgb(100%,100%,100%);fill-opacity:1;" d="M 88.859375 211.453125 C 88.035156 211.058594 86.792969 210.601563 85.128906 210.066406 L 87.167969 212.371094 L 87.757813 212.59375 C 88.832031 213.007813 89.613281 213.617188 90.113281 214.433594 C 90.328125 214.78125 90.371094 215.148438 90.242188 215.53125 L 87.699219 222.984375 L 89.984375 225.488281 L 93.386719 214.746094 L 97.167969 215.667969 L 94.933594 213.617188 L 93.625 213.28125 L 93.324219 212.835938 L 93.15625 212.21875 L 93.164063 211.578125 L 91.984375 210.417969 C 91.625 211.46875 91.402344 212.332031 91.320313 212.996094 L 91.25 213.636719 C 90.828125 212.75 90.035156 212.023438 88.859375 211.453125 "/>
<path style=" stroke:none;fill-rule:nonzero;fill:rgb(100%,100%,100%);fill-opacity:1;" d="M 96.96875 209.535156 C 96.449219 209.710938 96.117188 210.023438 95.980469 210.476563 C 95.808594 211.046875 96.117188 211.667969 96.929688 212.351563 C 97.984375 213.203125 99.488281 213.875 101.414063 214.34375 C 101.691406 214.414063 102.144531 214.515625 102.773438 214.644531 C 104.339844 214.957031 105.570313 215.226563 106.472656 215.449219 L 108.214844 215.984375 C 108.84375 216.261719 109.160156 216.398438 109.136719 216.523438 L 109.046875 216.601563 L 108.074219 216.765625 C 107.96875 216.753906 107.574219 216.679688 106.886719 216.550781 L 93.546875 213.25 L 95.773438 215.328125 L 101.671875 216.773438 C 102.269531 217.21875 102.570313 217.449219 102.566406 217.464844 C 101.136719 217.425781 100.289063 217.417969 100.039063 217.441406 L 98.460938 217.816406 C 97.980469 218.0625 97.695313 218.34375 97.609375 218.667969 C 97.515625 219.027344 97.710938 219.382813 98.207031 219.734375 L 100.023438 220.523438 C 100.949219 220.75 101.773438 220.804688 102.496094 220.679688 C 103.65625 220.453125 104.332031 220.105469 104.535156 219.640625 L 105.015625 219.714844 L 106.039063 220.113281 C 106.828125 220.539063 107.167969 221.070313 107.050781 221.699219 L 106.867188 222.039063 C 106.339844 222.371094 105.601563 222.511719 104.664063 222.46875 L 104.246094 222.449219 C 102.921875 222.371094 101.867188 222.234375 101.09375 222.042969 C 99.039063 221.539063 96.90625 220.59375 94.757813 219.226563 L 96.945313 223.226563 C 99.789063 224.28125 102.523438 225.558594 105.191406 227.054688 C 107.839844 228.644531 110.519531 229.738281 113.054688 231.605469 L 112.214844 229.222656 C 110.121094 227.996094 108.847656 227.242188 108.324219 226.949219 C 106.996094 226.34375 105.617188 225.335938 104.074219 224.558594 C 104.441406 224.558594 104.945313 224.582031 105.589844 224.609375 C 108.175781 224.84375 109.796875 223.804688 110.265625 222.675781 C 110.5 222.046875 110.257813 221.351563 109.574219 220.585938 C 108.878906 219.855469 107.988281 219.285156 106.90625 218.761719 C 105.8125 218.28125 105.152344 217.957031 104.921875 217.789063 L 104.734375 217.527344 C 108.117188 218.582031 111.648438 218.753906 115.148438 219.105469 L 112.613281 217.390625 L 111.296875 217.261719 C 111.496094 216.277344 110.742188 215.429688 109.085938 214.636719 C 108.277344 214.109375 106.703125 213.550781 104.347656 212.96875 C 104.050781 212.894531 103.214844 212.726563 101.835938 212.457031 C 100.457031 212.191406 99.703125 212.035156 99.585938 211.992188 L 98.402344 211.425781 C 97.984375 211.140625 97.804688 210.898438 97.863281 210.699219 C 97.941406 210.421875 98.378906 210.242188 99.164063 210.164063 L 98 209.601563 C 97.515625 209.484375 97.171875 209.464844 96.96875 209.535156 "/>
<path style=" stroke:none;fill-rule:nonzero;fill:rgb(100%,100%,100%);fill-opacity:1;" d="M 149.628906 219.066406 L 146.671875 217.976563 C 138.296875 218.863281 130.292969 219.328125 121.738281 218.285156 L 124.40625 220.023438 C 130.753906 220.589844 136.765625 220.328125 142.988281 219.835938 L 143.503906 225.695313 L 141.789063 224.445313 L 141.757813 224.046875 C 141.679688 223.015625 140.84375 222.171875 139.289063 221.519531 C 137.597656 220.796875 135.863281 220.464844 134.054688 220.503906 L 132.5625 220.667969 C 131.328125 220.945313 130.707031 221.390625 130.699219 222.109375 C 130.691406 222.605469 131.085938 223.023438 131.898438 223.320313 C 132.707031 223.609375 133.617188 223.734375 134.617188 223.691406 C 135.160156 223.675781 135.761719 223.429688 136.417969 223 L 136.6875 222.703125 L 137.046875 222.519531 C 137.527344 222.484375 137.953125 222.703125 138.328125 223.183594 C 138.621094 223.566406 138.773438 223.902344 138.789063 224.199219 C 138.847656 225.195313 137.847656 225.765625 135.785156 225.902344 C 134.441406 226.007813 133.191406 225.835938 132.066406 225.511719 C 130.445313 224.976563 129.214844 224.273438 128.378906 223.386719 C 128.148438 223.148438 127.496094 222.253906 126.558594 220.640625 C 125.945313 220.464844 124.941406 220.234375 124.402344 220.023438 C 124.644531 220.867188 125.082031 221.820313 125.816406 222.855469 C 126.664063 224.195313 127.605469 225.214844 128.582031 225.929688 C 129.9375 226.921875 131.691406 227.625 133.792969 227.960938 L 135.8125 228.097656 C 137.910156 228.019531 139.636719 227.453125 140.941406 226.359375 C 141.976563 226.882813 142.546875 227.183594 142.636719 227.257813 C 143.699219 227.988281 144.542969 228.765625 145.171875 229.664063 L 146.890625 230.589844 L 145.703125 219.550781 L 149.628906 219.066406 "/>
<path style=" stroke:none;fill-rule:nonzero;fill:rgb(100%,100%,100%);fill-opacity:1;" d="M 147.855469 217.84375 C 146.941406 217.890625 145.617188 218.023438 143.886719 218.308594 L 146.765625 219.4375 L 147.390625 219.371094 C 148.539063 219.238281 149.511719 219.371094 150.328125 219.851563 C 150.675781 220.054688 150.882813 220.355469 150.9375 220.75 L 152.058594 228.550781 L 155.195313 229.640625 L 153.378906 218.523438 L 157.226563 217.824219 L 154.269531 216.875 L 152.929688 217.117188 L 152.460938 216.878906 L 152.03125 216.417969 L 151.75 215.851563 L 150.171875 215.40625 C 150.328125 216.507813 150.519531 217.371094 150.75 218 L 150.976563 218.597656 C 150.199219 218.023438 149.160156 217.769531 147.855469 217.84375 "/>
<path style=" stroke:none;fill-rule:nonzero;fill:rgb(100%,100%,100%);fill-opacity:1;" d="M 160.46875 217.15625 C 165.507813 216.109375 170.453125 214.671875 175.328125 213.046875 L 172.21875 212.519531 C 165.890625 214.503906 159.414063 216.070313 152.847656 217.132813 L 155.84375 218.074219 L 157.59375 217.757813 L 158.710938 223.488281 L 162.347656 224.484375 C 163.417969 222.1875 165.546875 220.355469 168.683594 218.699219 C 168.5625 219.570313 168.601563 220.378906 168.804688 221.128906 C 169.054688 222.054688 169.851563 223.367188 171.246094 225.066406 L 173.726563 224.984375 C 172.765625 223.679688 172.273438 222.90625 172.246094 222.703125 L 171.867188 221.859375 C 171.460938 220.457031 171.941406 218.605469 173.175781 216.230469 L 168.949219 215.914063 C 166.824219 216.96875 165.132813 218.070313 163.820313 218.933594 C 162.667969 219.773438 161.8125 220.414063 161.269531 220.847656 L 160.46875 217.15625 "/>
<path style=" stroke:none;fill-rule:nonzero;fill:rgb(100%,100%,100%);fill-opacity:1;" d="M 194.5 204.792969 L 191.414063 204.738281 C 190.628906 205.097656 190.121094 205.226563 189.894531 205.125 L 189.230469 204.566406 C 188.710938 204.554688 187.972656 204.503906 187.058594 204.488281 L 188.3125 206.621094 L 189.679688 208.613281 L 189.132813 208.476563 C 186.785156 207.832031 185.214844 207.683594 184.335938 208.082031 L 183.488281 208.570313 C 182.019531 209.507813 181.015625 210.347656 180.570313 211.300781 L 179.582031 211.039063 C 179.550781 211.035156 179.15625 210.996094 178.402344 210.914063 C 177.589844 210.90625 176.746094 211.121094 175.800781 211.414063 L 171.082031 212.945313 L 174.140625 213.492188 C 176.246094 212.808594 176.941406 212.585938 176.214844 212.816406 L 178.109375 212.484375 L 179.09375 212.746094 L 178.734375 213.039063 C 177.9375 213.796875 177.417969 214.34375 177.179688 214.625 C 176.765625 215.148438 176.636719 215.640625 176.796875 216.113281 L 177.050781 216.480469 C 177.78125 217.109375 178.796875 217.195313 180.066406 216.6875 C 181.34375 216.199219 182.257813 215.484375 182.789063 214.550781 C 183.792969 214.796875 184.878906 214.777344 185.941406 214.277344 C 187.210938 213.707031 187.945313 213.101563 188.132813 212.460938 C 188.246094 212.246094 188.222656 211.957031 188.058594 211.597656 C 187.878906 211.191406 187.410156 210.9375 186.671875 210.839844 C 186.277344 210.804688 185.554688 210.804688 184.511719 210.84375 C 184.566406 210.496094 184.984375 210.117188 185.773438 209.703125 C 186.335938 209.40625 187.140625 209.394531 188.214844 209.65625 C 189.164063 209.882813 189.699219 210.117188 189.808594 210.351563 L 192.496094 216.34375 L 195.894531 216.34375 L 191.054688 206.589844 L 194.5 204.792969 "/>
<path style=" stroke:none;fill-rule:nonzero;fill:rgb(100%,100%,100%);fill-opacity:1;" d="M 193.296875 198 L 190.917969 199.023438 C 188.234375 202.339844 185.242188 205.433594 182.089844 208.546875 L 187.566406 206.128906 C 189.65625 203.511719 191.480469 200.636719 193.296875 198 "/>
</g>
</svg>
